<svg aria-hidden="true" xmlns="http://www.w3.org/2000/svg" xmlns:xlink="http://www.w3.org/1999/xlink"><symbol viewBox="0 0 64 64" id="bike" xmlns="http://www.w3.org/2000/svg">
<path d="M56.6399 49.1842C58.7711 47.6098 60.1599 45.0882 60.1599 42.2402C60.1599 38.4194 57.7023 35.1042 54.0479 33.9842L49.3952 32.557L51.5008 22.5346C55.9936 20.4546 59.36 16.365 60.4352 11.4114C60.6848 10.253 60.4096 9.06901 59.6672 8.15381C58.9376 7.24501 57.8367 6.72021 56.6591 6.72021H56.4927C54.7647 6.72021 53.3055 7.93621 52.9535 9.67701C52.2879 12.9346 49.7536 15.469 46.5024 16.1474C45.0688 16.4418 43.9744 17.581 43.6416 18.989C43.5968 19.0722 43.5648 19.1618 43.5456 19.2578L41.2672 30.0738L21.632 24.0642L19.808 19.5202H20.8512C23.1168 19.5202 24.96 17.677 24.96 15.4114C24.96 13.485 23.5903 11.7954 21.7087 11.3858L10.8736 9.06901C9.30555 8.72981 7.69275 9.11381 6.44475 10.125C5.19675 11.1298 4.47995 12.6338 4.47995 14.2338C4.47995 17.1522 6.84795 19.5202 9.76635 19.5202H10.656L12.4608 24.0386C11.168 24.493 9.93275 25.1458 8.79355 25.9906C5.23515 28.6146 3.19995 32.6594 3.19995 37.0818C3.19995 41.8242 5.60635 46.0098 9.25435 48.4994C5.79835 49.2418 3.19995 52.3202 3.19995 56.0002C3.19995 56.7042 3.77595 57.2802 4.47995 57.2802H59.5199C60.2239 57.2802 60.7999 56.7042 60.7999 56.0002C60.7999 53.037 59.1103 50.4642 56.6399 49.1842ZM47.0272 18.6498C51.2768 17.7666 54.5856 14.445 55.4624 10.189C55.5712 9.65781 55.9935 9.28021 56.4927 9.28021H56.6591C57.2095 9.28021 57.536 9.58101 57.6768 9.76021C57.9264 10.0674 58.0223 10.4706 57.9327 10.8674C56.8191 15.9938 52.7936 20.0194 47.6672 21.133C47.2704 21.2226 46.8607 21.1266 46.5535 20.877C46.3743 20.7362 46.08 20.4162 46.08 19.885C46.08 19.2834 46.4768 18.765 47.0272 18.6498ZM45.3439 23.1362C45.9583 23.5202 46.6559 23.725 47.3727 23.725C47.6479 23.725 47.9296 23.6994 48.2112 23.6354C48.3648 23.6034 48.5247 23.5522 48.6783 23.5138L46.9375 31.8082L43.7248 30.829L45.3439 23.1362ZM9.76635 16.9602C8.26235 16.9602 7.03995 15.7378 7.03995 14.2338C7.03995 13.4082 7.41115 12.6338 8.05115 12.1154C8.54395 11.7186 9.14555 11.5074 9.75995 11.5074C9.95195 11.5074 10.144 11.5266 10.336 11.5714L21.1712 13.8946C21.8816 14.0418 22.4 14.6818 22.4 15.4114C22.4 16.2626 21.7024 16.9602 20.8512 16.9602H9.76635V16.9602ZM18.592 23.373C17.376 23.2258 16.16 23.245 14.9696 23.4242L13.408 19.5202H17.056L18.592 23.373ZM5.75995 37.0818C5.75995 33.4786 7.41755 30.189 10.3168 28.045C12.288 26.5858 14.5984 25.8306 16.9664 25.8306C18.0736 25.8306 19.1872 25.997 20.288 26.3362L53.2991 36.429C55.8719 37.2162 57.5999 39.5522 57.5999 42.2402C57.5999 45.5938 54.8735 48.3202 51.52 48.3202H16.9984C10.8032 48.3202 5.75995 43.277 5.75995 37.0818ZM5.91995 54.7202C6.48955 52.5122 8.49915 50.8802 10.88 50.8802H53.12C55.5008 50.8802 57.5103 52.5122 58.0799 54.7202H5.91995ZM22.272 43.2642L24.1408 44.8258C24.16 44.8386 24.1792 44.8514 24.1984 44.8642C24.224 44.8834 24.256 44.9026 24.288 44.9218C24.3264 44.9474 24.3648 44.9666 24.4032 44.9858C24.4352 45.005 24.4672 45.0178 24.4928 45.0306C24.544 45.0498 24.5888 45.0626 24.64 45.0754C24.6656 45.0818 24.6912 45.0882 24.7232 45.0946C24.8 45.1138 24.8768 45.1202 24.96 45.1202H28.16C28.864 45.1202 29.44 44.5442 29.44 43.8402C29.44 43.1362 28.864 42.5602 28.16 42.5602H25.4208L23.9104 41.2994C24.576 40.1666 24.96 38.8482 24.96 37.4402C24.96 33.2034 21.5168 29.7602 17.28 29.7602C13.0432 29.7602 9.59995 33.2034 9.59995 37.4402C9.59995 41.677 13.0432 45.1202 17.28 45.1202C19.1872 45.1202 20.928 44.4162 22.272 43.2642ZM12.16 37.4402C12.16 34.6178 14.4576 32.3202 17.28 32.3202C20.1024 32.3202 22.4 34.6178 22.4 37.4402C22.4 38.221 22.2208 38.9634 21.9008 39.629L18.0992 36.4546C17.5552 36.0066 16.7488 36.077 16.2944 36.621C15.8464 37.165 15.9168 37.9714 16.4608 38.4258L20.2624 41.5938C19.424 42.2018 18.3936 42.5602 17.28 42.5602C14.4576 42.5602 12.16 40.2626 12.16 37.4402ZM33.28 43.8402C33.28 43.1362 33.856 42.5602 34.56 42.5602H35.84C36.544 42.5602 37.12 43.1362 37.12 43.8402C37.12 44.5442 36.544 45.1202 35.84 45.1202H34.56C33.856 45.1202 33.28 44.5442 33.28 43.8402ZM40.96 43.8402C40.96 43.1362 41.536 42.5602 42.24 42.5602H43.52C44.224 42.5602 44.8 43.1362 44.8 43.8402C44.8 44.5442 44.224 45.1202 43.52 45.1202H42.24C41.536 45.1202 40.96 44.5442 40.96 43.8402ZM48.64 43.8402C48.64 43.1362 49.216 42.5602 49.92 42.5602H51.2C51.904 42.5602 52.48 43.1362 52.48 43.8402C52.48 44.5442 51.904 45.1202 51.2 45.1202H49.92C49.216 45.1202 48.64 44.5442 48.64 43.8402Z"/>
</symbol><symbol viewBox="0 0 330 406" id="black" xmlns="http://www.w3.org/2000/svg">
<path d="M11.7619 0.858261L329.994 405.869L183.343 405.869L-77.4836 70.6167L11.7619 0.858261Z" fill-opacity="0.8"/>
</symbol><symbol viewBox="0 0 177 242" id="border" xmlns="http://www.w3.org/2000/svg">
<path d="M-46.5599 27.5771L-13.3891 1.64924L175.903 241.331L119.332 241.331L36.3086 134.354L-46.5599 27.5771Z"/>
</symbol><symbol viewBox="0 0 64 64" id="dumbbell" xmlns="http://www.w3.org/2000/svg">
<path d="M7.2 42.4H12V43.2C12 44.9644 13.4355 46.4 15.2 46.4H20C21.7645 46.4 23.2 44.9644 23.2 43.2V36.8H40.8V43.2C40.8 44.9644 42.2355 46.4 44 46.4H48.8C50.5645 46.4 52 44.9644 52 43.2V42.4H56.8C58.5645 42.4 60 40.9644 60 39.2V24.8C60 23.0355 58.5645 21.6 56.8 21.6H52V20.8C52 19.0355 50.5645 17.6 48.8 17.6H44C42.2355 17.6 40.8 19.0355 40.8 20.8V27.2H23.2V20.8C23.2 19.0355 21.7645 17.6 20 17.6H15.2C13.4355 17.6 12 19.0355 12 20.8V21.6H7.2C5.43555 21.6 4 23.0355 4 24.8V39.2C4 40.9644 5.43555 42.4 7.2 42.4ZM56.8 24.8V39.2H52V24.8H56.8ZM44 20.8H48.8V24.8V39.2V43.2H44V20.8ZM40.6 30.4V33.6H23.2V30.4H40.6ZM15.2 20.8H20L20.0005 27.2H20V36.8H20.0014L20.002 43.2H15.2V39.2V24.8V20.8ZM7.2 24.8H12V39.2H7.2V24.8Z"/>
</symbol><symbol viewBox="0 0 64 64" id="location" xmlns="http://www.w3.org/2000/svg">
<path d="M37.3334 20.6668C37.3334 17.7202 34.9467 15.3335 32.0001 15.3335C29.0534 15.3335 26.6667 17.7202 26.6667 20.6668C26.6667 23.6135 29.0534 26.0002 32.0001 26.0002C34.9467 26.0002 37.3334 23.6135 37.3334 20.6668ZM29.3334 20.6668C29.3334 19.2002 30.5334 18.0002 32.0001 18.0002C33.4667 18.0002 34.6667 19.2002 34.6667 20.6668C34.6667 22.1335 33.4667 23.3335 32.0001 23.3335C30.5334 23.3335 29.3334 22.1335 29.3334 20.6668Z"/>
<path d="M5.33327 54H58.6666C59.1333 54 59.5599 53.76 59.7999 53.36C60.0399 52.96 60.0666 52.48 59.8533 52.0667L49.1866 30.7333C48.9599 30.28 48.5066 30 47.9999 30H39.6933C41.6666 25.64 42.6666 22.4933 42.6666 20.6667C42.6666 14.7867 37.8799 10 31.9999 10C26.1199 10 21.3333 14.7867 21.3333 20.6667C21.3333 22.4933 22.3333 25.64 24.3066 30H15.9999C15.4933 30 15.0399 30.28 14.8133 30.7333L4.14661 52.0667C3.93327 52.48 3.95994 52.9733 4.19994 53.36C4.43994 53.76 4.86661 54 5.33327 54ZM23.9999 20.6667C23.9999 16.2533 27.5866 12.6667 31.9999 12.6667C36.4133 12.6667 39.9999 16.2533 39.9999 20.6667C39.9999 23.72 35.9733 32.08 31.9999 39.28C28.0266 32.08 23.9999 23.72 23.9999 20.6667ZM16.8266 32.6667H25.5599C28.0533 37.8133 30.7333 42.4667 30.8533 42.6667C31.3333 43.4933 32.6933 43.4933 33.1599 42.6667C33.2799 42.4667 35.9599 37.8133 38.4533 32.6667H47.1866L56.5199 51.3333H7.49327L16.8266 32.6667Z"/>
</symbol><symbol viewBox="0 0 64 64" id="wallet" xmlns="http://www.w3.org/2000/svg">
<path fill-rule="evenodd" clip-rule="evenodd" d="M62.6666 53.3333C62.6666 57.016 59.6826 60 55.9999 60H7.99992C4.31725 60 1.33325 57.016 1.33325 53.3333V14.6666C1.33325 11.7213 3.72125 9.33329 6.66658 9.33329H33.5612L44.3599 5.42129C45.0439 5.17196 45.8012 5.5253 46.0506 6.20663L47.1879 9.33329H51.9999C54.9452 9.33329 57.3332 11.7213 57.3332 14.6666V17.3333C60.2786 17.3333 62.6666 19.7213 62.6666 22.6666V53.3333ZM6.66658 12C5.19459 12 3.99992 13.1946 3.99992 14.6666C3.99992 16.1386 5.19459 17.3333 6.66658 17.3333H11.2599H11.5119C11.5293 17.3266 11.5399 17.312 11.5573 17.3053L26.1999 12H6.66658ZM45.4372 12.2413L44.0212 8.34263H44.0199L41.2853 9.33329H41.2892L33.9372 12H33.9239L19.2053 17.3333H47.2879L45.4372 12.2413ZM54.6666 14.6666C54.6666 13.1946 53.4719 12 51.9999 12H48.1559L50.0946 17.3333H54.6666V14.6666ZM57.3332 20H6.66658C5.69059 20 4.78659 19.7186 3.99992 19.26V53.3333C3.99992 55.5426 5.79192 57.3333 7.99992 57.3333H55.9999C58.2092 57.3333 59.9999 55.5426 59.9999 53.3333V44H54.6666C51.7212 44 49.3332 41.612 49.3332 38.6666C49.3332 35.7213 51.7212 33.3333 54.6666 33.3333H59.9999V22.6666C59.9999 21.1946 58.8052 20 57.3332 20ZM59.9999 41.3333V36H54.6666C53.1946 36 51.9999 37.1946 51.9999 38.6666C51.9999 40.1386 53.1946 41.3333 54.6666 41.3333H59.9999ZM54.6666 37.3333H57.3332V40H54.6666V37.3333Z"/>
</symbol><symbol viewBox="0 0 224 272" id="yellow" xmlns="http://www.w3.org/2000/svg">
<path d="M9.07699 0.0687848L223.346 271.376L158.192 271.376L-29.1671 29.9622L9.07699 0.0687848Z"/>
</symbol></svg>